<?xml version="1.0" encoding="UTF-8"?>
<svg version="1.1" xmlns="http://www.w3.org/2000/svg" width="139" height="169">
<path d="M0 0 C3.79075545 3.06948346 4.76519711 5.70663918 5.81640625 10.41015625 C6.10580078 11.64701172 6.39519531 12.88386719 6.69335938 14.15820312 C6.98017578 15.44662109 7.26699219 16.73503906 7.5625 18.0625 C8.1343669 20.61924935 8.72142559 23.17102778 9.31640625 25.72265625 C9.56849854 26.85453369 9.82059082 27.98641113 10.08032227 29.15258789 C11.03289225 32.10183763 11.46458399 33.27824185 14 35 C16.93405346 36.00746851 16.93405346 36.00746851 20.3125 36.71875 C22.17261719 37.15767578 22.17261719 37.15767578 24.0703125 37.60546875 C25.37992389 37.90489264 26.68982387 38.20305697 28 38.5 C30.56578318 39.08151833 33.12680785 39.67701183 35.6875 40.28125 C36.82574219 40.53970703 37.96398437 40.79816406 39.13671875 41.06445312 C42.00853285 42.00278802 43.24688651 42.58505676 45 45 C45.9375 48.375 45.9375 48.375 46 52 C44.01585201 55.21011094 42.65245497 56.73562027 39.13085938 58.16259766 C38.04611328 58.41058105 36.96136719 58.65856445 35.84375 58.9140625 C34.65652344 59.20023438 33.46929687 59.48640625 32.24609375 59.78125 C31.00988281 60.0596875 29.77367188 60.338125 28.5 60.625 C26.05012448 61.19212447 23.60209984 61.76732041 21.15625 62.3515625 C19.52913086 62.72015381 19.52913086 62.72015381 17.86914062 63.09619141 C14.86837514 64.04146318 13.18190392 64.73880461 11 67 C9.87479908 69.9041654 9.87479908 69.9041654 9.21875 73.27734375 C8.79142578 75.13069336 8.79142578 75.13069336 8.35546875 77.02148438 C8.06860241 78.32644817 7.78346211 79.63179252 7.5 80.9375 C6.94044971 83.49124665 6.36804024 86.04221825 5.78125 88.58984375 C5.4109668 90.28935181 5.4109668 90.28935181 5.03320312 92.02319336 C3.88150205 95.34140962 2.76370559 96.861586 0 99 C-3.5 99.5 -3.5 99.5 -7 99 C-11.02178327 95.93292042 -11.90215138 92.82222805 -13.0625 88 C-13.2267749 87.34153076 -13.3910498 86.68306152 -13.56030273 86.00463867 C-14.34537254 82.84031502 -15.07759629 79.66461988 -15.8125 76.48828125 C-16.06 75.44027344 -16.3075 74.39226562 -16.5625 73.3125 C-16.77003906 72.38050781 -16.97757813 71.44851562 -17.19140625 70.48828125 C-18.10320254 67.68241538 -18.9868991 66.15999699 -21 64 C-23.67697221 62.96954802 -23.67697221 62.96954802 -26.76953125 62.4375 C-27.90583984 62.19773438 -29.04214844 61.95796875 -30.21289062 61.7109375 C-31.40076172 61.47632813 -32.58863281 61.24171875 -33.8125 61 C-48.66388904 58.03785994 -48.66388904 58.03785994 -53 54 C-53.7265625 52 -53.7265625 52 -53.625 50 C-53.61339844 49.01 -53.61339844 49.01 -53.6015625 48 C-52.73562395 45.12103545 -51.28585489 43.93658083 -49 42 C-46.13085938 40.95092773 -46.13085938 40.95092773 -42.84375 40.18359375 C-41.65652344 39.89419922 -40.46929687 39.60480469 -39.24609375 39.30664062 C-38.00988281 39.01982422 -36.77367187 38.73300781 -35.5 38.4375 C-33.05005623 37.86141833 -30.60202786 37.27711313 -28.15625 36.68359375 C-27.07150391 36.43150146 -25.98675781 36.17940918 -24.86914062 35.91967773 C-21.89445675 34.96616904 -20.1783813 34.23233694 -18 32 C-16.95350752 29.30710031 -16.95350752 29.30710031 -16.40234375 26.1953125 C-16.15806641 25.05449219 -15.91378906 23.91367188 -15.66210938 22.73828125 C-15.42298828 21.54589844 -15.18386719 20.35351562 -14.9375 19.125 C-14.45481303 16.77174099 -13.96420455 14.42008983 -13.46484375 12.0703125 C-13.14954712 10.50434326 -13.14954712 10.50434326 -12.82788086 8.90673828 C-11.74178767 5.09340134 -10.36787306 2.00310691 -7.125 -0.375 C-4.30158614 -1.20541584 -2.77613862 -0.97164852 0 0 Z " fill="#FDFDFB" transform="translate(69,41)"/>
</svg>
